<svg width="6502" height="842" viewBox="0 0 6502 842" fill="none" xmlns="http://www.w3.org/2000/svg">
<path d="M4288.47 410.718H4412.9V611.956C4355.45 652.204 4276.36 673.591 4203.59 673.591C4044.56 673.591 3928.35 568.93 3928.35 420.991C3928.35 273.051 4044.56 168.391 4206.45 168.391C4299.9 168.391 4375.43 199.629 4424.67 257.222L4335.03 336.791C4320.21 319.605 4301.66 305.834 4280.71 296.472C4259.76 287.109 4236.94 282.388 4213.89 282.65C4128.31 282.65 4071.29 337.464 4071.29 421.496C4071.29 503.338 4128.31 560.257 4212.5 560.257C4238.83 560.427 4264.88 554.996 4288.82 544.344L4288.47 410.718Z" fill="#252525"/>
<path d="M4685.57 534.911H4608.56V663.99H4467.43V178.24H4695.61C4831.8 178.24 4917.37 246.947 4917.37 358.007C4917.37 429.493 4881.72 482.202 4819.69 511.335L4927.32 663.99H4776.25L4685.57 534.911ZM4687.04 286.521H4608.56V428.735H4687.04C4745.53 428.735 4774.69 402.381 4774.69 358.007C4774.69 313.634 4745.53 286.269 4687.04 286.269V286.521Z" fill="#252525"/>
<path d="M4933.84 420.991C4933.84 275.24 5051.43 168.391 5210.73 168.391C5370.03 168.391 5488.14 275.24 5488.14 420.991C5488.14 566.741 5370.46 673.591 5210.73 673.591C5051 673.591 4933.84 566.825 4933.84 420.991ZM5345.97 420.991C5345.97 336.791 5286.79 282.145 5211.16 282.145C5135.54 282.145 5076.44 336.791 5076.44 420.991C5076.44 505.191 5135.63 559.752 5211.16 559.752C5286.7 559.752 5345.97 505.191 5345.97 420.991Z" fill="#252525"/>
<path d="M5522.88 447.538V178.098H5664.09V443.328C5664.09 526.601 5699.74 559.945 5759.27 559.945C5818.8 559.945 5853.41 526.265 5853.41 443.328V178.266H5992.46V447.706C5992.46 592.698 5905.42 673.951 5757.8 673.951C5610.19 673.951 5522.88 592.53 5522.88 447.538Z" fill="#252525"/>
<path d="M6501.94 358.007C6501.94 468.309 6416.37 537.016 6280.17 537.016H6193.65V663.99H6052V178.24H6280.17C6416.37 178.24 6501.94 246.947 6501.94 358.007ZM6359.35 358.007C6359.35 312.876 6330.1 286.521 6271.69 286.521H6193.21V428.735H6271.69C6330.1 428.735 6359.78 402.381 6359.78 358.007H6359.35Z" fill="#252525"/>
<path d="M3755.26 0H0V842H3755.26V0Z" fill="#FF5445"/>
<path d="M173.014 620.292L219.392 519.252C268.578 549.713 325.497 566.271 383.793 567.078C442.285 567.078 465.128 551.164 465.128 527.588C465.128 450.545 181.32 506.706 181.32 326.35C181.666 239.287 254.349 168.391 402.656 168.391C467.551 168.391 534.523 182.957 583.756 210.491L540.493 312.541C498.238 289.107 450.671 276.234 402.05 275.072C342.779 275.072 321.407 294.522 321.407 318.772C321.407 393.036 604.523 337.548 604.523 516.558C604.436 601.6 531.667 673.591 383.36 673.591C301.419 673.591 220.084 652.204 173.014 620.292Z" fill="white"/>
<path d="M629.529 447.538V178.098H770.654V443.328C770.654 526.602 806.303 559.945 865.834 559.945C925.364 559.945 959.975 526.265 959.975 443.328V178.266H1098.94V447.706C1098.94 592.53 1011.72 673.615 864.103 673.615C716.489 673.615 629.529 592.53 629.529 447.538Z" fill="white"/>
<path d="M1351.15 487.789L1298.37 542.603V664.019H1158.63V178.27H1298.37V380.35L1491.59 178.27H1647.33L1443.13 393.401L1657.8 664.019H1493.4L1351.15 487.789Z" fill="white"/>
<path d="M2134.09 178.27V664.019H1992.88V474.569H1800.36V664.019H1659.23V178.27H1800.36V360.815H1992.88V178.27H2134.09Z" fill="white"/>
<path d="M2172.63 420.991C2172.63 275.24 2290.21 168.391 2449.51 168.391C2608.81 168.391 2726.92 275.24 2726.92 420.991C2726.92 566.741 2609.24 673.591 2449.51 673.591C2289.78 673.591 2172.63 566.825 2172.63 420.991ZM2584.75 420.991C2584.75 336.791 2525.57 282.145 2449.94 282.145C2374.32 282.145 2315.22 336.791 2315.22 420.991C2315.22 505.191 2374.41 559.752 2449.94 559.752C2525.48 559.752 2584.75 505.191 2584.75 420.991Z" fill="white"/>
<path d="M2907.31 284.446V391.296H3127.7V497.472H2907.31V664.019H2766.02V178.27H3157.46V284.446H2907.31Z" fill="white"/>
<path d="M3329.34 284.416V391.266H3549.72V497.442H3329.34V663.99H3188.21V178.24H3579.66V284.416H3329.34Z" fill="white"/>
</svg>
