<svg width="836" height="106" viewBox="0 0 836 106" fill="none" xmlns="http://www.w3.org/2000/svg">
<path d="M835.033 0.0214844H469.434V105.257H835.033V0.0214844Z" fill="white"/>
<path d="M469.438 0H0V105.257H469.438V0Z" fill="#FF5445"/>
<path d="M21.6284 77.5421L27.4261 64.9113C33.5747 68.7192 40.69 70.7891 47.9775 70.8899C55.2895 70.8899 58.1451 68.9005 58.1451 65.9533C58.1451 56.3223 22.6668 63.343 22.6668 40.797C22.7101 29.9134 31.796 21.0508 50.3355 21.0508C58.4479 21.0508 66.8199 22.8717 72.9746 26.3136L67.5663 39.0707C62.284 36.1414 56.3378 34.532 50.2598 34.3868C42.8505 34.3868 40.1788 36.8183 40.1788 39.8496C40.1788 49.1333 75.5705 42.1969 75.5705 64.5745C75.5597 75.2054 66.463 84.2049 47.9234 84.2049C37.6802 84.2049 27.5126 81.5313 21.6284 77.5421Z" fill="white"/>
<path d="M78.6963 55.9459V22.2637H96.3381V55.4196C96.3381 65.8295 100.794 69.9976 108.236 69.9976C115.678 69.9976 120.005 65.7874 120.005 55.4196V22.2847H137.376V55.9669C137.376 74.0711 126.473 84.2073 108.02 84.2073C89.5669 84.2073 78.6963 74.0711 78.6963 55.9459Z" fill="white"/>
<path d="M168.905 60.9776L162.307 67.8298V83.0078H144.838V22.2852H162.307V47.5468L186.46 22.2852H205.93L180.403 49.1783L207.239 83.0078H186.688L168.905 60.9776Z" fill="white"/>
<path d="M266.779 22.2852V83.0078H249.126V59.325H225.059V83.0078H207.417V22.2852H225.059V45.1048H249.126V22.2852H266.779Z" fill="white"/>
<path d="M271.596 52.6278C271.596 34.4079 286.295 21.0508 306.209 21.0508C326.122 21.0508 340.886 34.4079 340.886 52.6278C340.886 70.8478 326.176 84.2049 306.209 84.2049C286.241 84.2049 271.596 70.8583 271.596 52.6278ZM323.115 52.6278C323.115 42.1021 315.716 35.271 306.263 35.271C296.809 35.271 289.421 42.1021 289.421 52.6278C289.421 63.1535 296.82 69.9741 306.263 69.9741C315.706 69.9741 323.115 63.1535 323.115 52.6278Z" fill="white"/>
<path d="M363.438 35.558V48.9151H390.988V62.188H363.438V83.0078H345.774V22.2852H394.708V35.558H363.438Z" fill="white"/>
<path d="M416.194 35.5541V48.9112H443.744V62.1841H416.194V83.0039H398.552V22.2813H447.486V35.5541H416.194Z" fill="white"/>
<path d="M536.094 51.3437H551.648V76.5001C544.466 81.5313 534.58 84.2049 525.483 84.2049C505.602 84.2049 491.076 71.1214 491.076 52.6278C491.076 34.1342 505.602 21.0508 525.84 21.0508C537.522 21.0508 546.965 24.9558 553.119 32.1554L541.913 42.1021C540.061 39.9538 537.742 38.2323 535.124 37.0619C532.505 35.8915 529.652 35.3014 526.77 35.3341C516.073 35.3341 508.945 42.1863 508.945 52.691C508.945 62.9219 516.073 70.0373 526.597 70.0373C529.888 70.0585 533.144 69.3796 536.137 68.0479L536.094 51.3437Z" fill="#252525"/>
<path d="M585.734 66.868H576.108V83.0039H558.466V22.2813H586.989C604.014 22.2813 614.712 30.8702 614.712 44.7536C614.712 53.6899 610.255 60.2789 602.5 63.9208L615.956 83.0039H597.07L585.734 66.868ZM585.918 35.8173H576.108V53.5951H585.918C593.23 53.5951 596.875 50.3006 596.875 44.7536C596.875 39.2065 593.23 35.7857 585.918 35.7857V35.8173Z" fill="#252525"/>
<path d="M616.771 52.6278C616.771 34.4079 631.47 21.0508 651.383 21.0508C671.297 21.0508 686.061 34.4079 686.061 52.6278C686.061 70.8478 671.351 84.2049 651.383 84.2049C631.416 84.2049 616.771 70.8583 616.771 52.6278ZM668.29 52.6278C668.29 42.1021 660.891 35.271 651.438 35.271C641.984 35.271 634.596 42.1021 634.596 52.6278C634.596 63.1535 641.995 69.9741 651.438 69.9741C660.88 69.9741 668.29 63.1535 668.29 52.6278Z" fill="#252525"/>
<path d="M690.405 55.9458V22.2637H708.057V55.4196C708.057 65.8295 712.514 69.9976 719.956 69.9976C727.397 69.9976 731.724 65.7874 731.724 55.4196V22.2847H749.106V55.9669C749.106 74.0921 738.225 84.2494 719.772 84.2494C701.319 84.2494 690.405 74.0711 690.405 55.9458Z" fill="#252525"/>
<path d="M812.796 44.7536C812.796 58.5422 802.098 67.1312 785.073 67.1312H774.256V83.0039H756.55V22.2813H785.073C802.098 22.2813 812.796 30.8702 812.796 44.7536ZM794.97 44.7536C794.97 39.1118 791.314 35.8173 784.013 35.8173H774.202V53.5951H784.013C791.314 53.5951 795.024 50.3006 795.024 44.7536H794.97Z" fill="#252525"/>
</svg>
