<svg width="6631" height="971" viewBox="0 0 6631 971" fill="none" xmlns="http://www.w3.org/2000/svg">
<path d="M4370.12 492.328H4494.55V693.566C4437.1 733.813 4358.01 755.2 4285.24 755.2C4126.21 755.2 4010 650.539 4010 502.6C4010 354.661 4126.21 250 4288.1 250C4381.55 250 4457.08 281.238 4506.32 338.831L4416.68 418.4C4401.86 401.214 4383.31 387.444 4362.36 378.081C4341.41 368.718 4318.59 363.998 4295.54 364.259C4209.96 364.259 4152.94 419.074 4152.94 503.105C4152.94 584.948 4209.96 641.867 4294.15 641.867C4320.48 642.037 4346.53 636.605 4370.47 625.953L4370.12 492.328Z" fill="white"/>
<path d="M4767.22 616.521H4690.21V745.599H4549.08V259.85H4777.26C4913.45 259.85 4999.02 328.557 4999.02 439.617C4999.02 511.102 4963.37 563.812 4901.33 592.945L5008.97 745.599H4857.9L4767.22 616.521ZM4768.69 368.131H4690.21V510.345H4768.69C4827.18 510.345 4856.34 483.99 4856.34 439.617C4856.34 395.243 4827.18 367.878 4768.69 367.878V368.131Z" fill="white"/>
<path d="M5015.49 502.6C5015.49 356.85 5133.08 250 5292.38 250C5451.68 250 5569.78 356.85 5569.78 502.6C5569.78 648.35 5452.11 755.2 5292.38 755.2C5132.65 755.2 5015.49 648.434 5015.49 502.6ZM5427.62 502.6C5427.62 418.4 5368.44 363.754 5292.81 363.754C5217.19 363.754 5158.09 418.4 5158.09 502.6C5158.09 586.8 5217.27 641.362 5292.81 641.362C5368.35 641.362 5427.62 586.8 5427.62 502.6Z" fill="white"/>
<path d="M5604.53 529.147V259.707H5745.74V524.937C5745.74 608.211 5781.39 641.554 5840.92 641.554C5900.45 641.554 5935.06 607.874 5935.06 524.937V259.875H6074.11V529.315C6074.11 674.308 5987.06 755.561 5839.45 755.561C5691.84 755.561 5604.53 674.139 5604.53 529.147Z" fill="white"/>
<path d="M6583.59 439.617C6583.59 549.919 6498.01 618.626 6361.82 618.626H6275.29V745.599H6133.65V259.85H6361.82C6498.01 259.85 6583.59 328.557 6583.59 439.617ZM6440.99 439.617C6440.99 394.485 6411.75 368.131 6353.34 368.131H6274.86V510.345H6353.34C6411.75 510.345 6441.43 483.99 6441.43 439.617H6440.99Z" fill="white"/>
<path d="M4417.47 539.718H4541.9V740.956C4484.45 781.204 4405.36 802.591 4332.59 802.591C4173.56 802.591 4057.35 697.93 4057.35 549.991C4057.35 402.051 4173.56 297.391 4335.45 297.391C4428.9 297.391 4504.43 328.629 4553.67 386.222L4464.03 465.791C4449.21 448.605 4430.66 434.834 4409.71 425.472C4388.76 416.109 4365.94 411.388 4342.89 411.65C4257.31 411.65 4200.29 466.464 4200.29 550.496C4200.29 632.338 4257.31 689.257 4341.5 689.257C4367.83 689.427 4393.88 683.996 4417.82 673.344L4417.47 539.718Z" fill="#252525"/>
<path d="M4814.57 663.911H4737.56V792.99H4596.43V307.24H4824.61C4960.8 307.24 5046.37 375.947 5046.37 487.007C5046.37 558.493 5010.72 611.202 4948.69 640.335L5056.32 792.99H4905.25L4814.57 663.911ZM4816.04 415.521H4737.56V557.735H4816.04C4874.53 557.735 4903.69 531.381 4903.69 487.007C4903.69 442.634 4874.53 415.269 4816.04 415.269V415.521Z" fill="#252525"/>
<path d="M5062.84 549.991C5062.84 404.24 5180.43 297.391 5339.73 297.391C5499.03 297.391 5617.14 404.24 5617.14 549.991C5617.14 695.741 5499.46 802.591 5339.73 802.591C5180 802.591 5062.84 695.825 5062.84 549.991ZM5474.97 549.991C5474.97 465.791 5415.79 411.145 5340.16 411.145C5264.54 411.145 5205.44 465.791 5205.44 549.991C5205.44 634.191 5264.63 688.752 5340.16 688.752C5415.7 688.752 5474.97 634.191 5474.97 549.991Z" fill="#252525"/>
<path d="M5651.88 576.538V307.098H5793.09V572.328C5793.09 655.601 5828.74 688.945 5888.27 688.945C5947.8 688.945 5982.41 655.265 5982.41 572.328V307.266H6121.46V576.706C6121.46 721.698 6034.42 802.951 5886.8 802.951C5739.19 802.951 5651.88 721.53 5651.88 576.538Z" fill="#252525"/>
<path d="M6630.94 487.007C6630.94 597.309 6545.37 666.016 6409.17 666.016H6322.65V792.99H6181V307.24H6409.17C6545.37 307.24 6630.94 375.947 6630.94 487.007ZM6488.35 487.007C6488.35 441.876 6459.1 415.521 6400.69 415.521H6322.21V557.735H6400.69C6459.1 557.735 6488.78 531.381 6488.78 487.007H6488.35Z" fill="#252525"/>
<path d="M3881.76 130.298V968.5H130.036L2.5 840.964V2.5H3753.96L3881.76 130.298Z" fill="#FF5445" stroke="white" stroke-width="5"/>
<path d="M302.014 749.292L348.392 648.252C397.578 678.713 454.497 695.271 512.793 696.078C571.285 696.078 594.128 680.164 594.128 656.588C594.128 579.545 310.32 635.706 310.32 455.35C310.666 368.287 383.349 297.391 531.656 297.391C596.551 297.391 663.523 311.957 712.756 339.491L669.493 441.541C627.238 418.107 579.671 405.234 531.05 404.072C471.779 404.072 450.407 423.522 450.407 447.772C450.407 522.036 733.523 466.548 733.523 645.558C733.436 730.6 660.667 802.591 512.36 802.591C430.419 802.591 349.084 781.204 302.014 749.292Z" fill="white"/>
<path d="M758.529 576.538V307.098H899.654V572.328C899.654 655.602 935.303 688.945 994.834 688.945C1054.36 688.945 1088.98 655.265 1088.98 572.328V307.266H1227.94V576.706C1227.94 721.53 1140.72 802.615 993.103 802.615C845.489 802.615 758.529 721.53 758.529 576.538Z" fill="white"/>
<path d="M1480.15 616.789L1427.37 671.603V793.019H1287.63V307.27H1427.37V509.35L1620.59 307.27H1776.33L1572.13 522.401L1786.8 793.019H1622.4L1480.15 616.789Z" fill="white"/>
<path d="M2263.09 307.27V793.019H2121.88V603.569H1929.36V793.019H1788.23V307.27H1929.36V489.815H2121.88V307.27H2263.09Z" fill="white"/>
<path d="M2301.63 549.991C2301.63 404.24 2419.21 297.391 2578.51 297.391C2737.81 297.391 2855.92 404.24 2855.92 549.991C2855.92 695.741 2738.24 802.591 2578.51 802.591C2418.78 802.591 2301.63 695.825 2301.63 549.991ZM2713.75 549.991C2713.75 465.791 2654.57 411.145 2578.94 411.145C2503.32 411.145 2444.22 465.791 2444.22 549.991C2444.22 634.191 2503.41 688.752 2578.94 688.752C2654.48 688.752 2713.75 634.191 2713.75 549.991Z" fill="white"/>
<path d="M3036.31 413.446V520.296H3256.7V626.472H3036.31V793.019H2895.02V307.27H3286.46V413.446H3036.31Z" fill="white"/>
<path d="M3458.34 413.416V520.266H3678.72V626.442H3458.34V792.99H3317.21V307.24H3708.66V413.416H3458.34Z" fill="white"/>
<path d="M5793 307.5L5745.5 260H5604.5L5652 307.5H5793Z" fill="white" stroke="#C4C4C4"/>
<path d="M4542.5 540.5L4495 493H4370L4417.5 540.5H4542.5Z" fill="white" stroke="#C4C4C4"/>
<path d="M6133.5 260L6181 307.5V792.5L6133.5 745V260Z" fill="white" stroke="#C4C4C4"/>
<path d="M4549 260L4596.5 307.5V792.5L4549 745V260Z" fill="white" stroke="#C4C4C4"/>
<path d="M6121.5 307.5L6074 260H5933L5980.5 307.5H6121.5Z" fill="white" stroke="#C4C4C4"/>
</svg>
